<svg width="50" height="50" viewBox="0 0 50 50" fill="none" xmlns="http://www.w3.org/2000/svg">
<path d="M12.8601 32.7066C11.2932 31.4513 8.91449 31.5978 7.54375 33.0329L0.931278 39.9636C-0.438503 41.3987 -0.278646 43.5794 1.28832 44.8346L5.85713 48.4969C8.33633 50.2311 10.5657 49.9908 10.604 49.9864C11.5488 49.8258 13.4345 50.1399 14.8129 49.7399C20.1896 48.1785 27.9258 45.0276 36.738 35.7917C45.5501 26.5557 48.4276 18.5759 49.8155 13.0487C50.2472 11.3285 49.7696 9.34258 49.8892 8.29697C49.8911 8.26276 49.9658 6.2382 48.0514 4.70399C47.9097 4.59084 47.8054 4.49171 47.7249 4.40224L44.5585 1.80838L43.2461 0.853122C41.6801 -0.402139 39.2995 -0.254772 37.9297 1.18031L31.3173 8.11013C29.9475 9.54521 30.1064 11.7259 31.6733 12.982L37.3707 17.5461C35.1882 21.5075 32.8325 25.1733 28.7844 29.4162C25.2552 33.1171 22.2782 35.3276 18.8887 37.5373L12.8601 32.7066Z" fill="#47A142"/>
<path d="M5.14062 47.9223L5.85663 48.496C8.33582 50.2302 10.5652 49.9898 10.6035 49.9855C11.5483 49.8249 13.434 50.139 14.8124 49.739C20.1891 48.1776 27.9253 45.0267 36.7375 35.7907C45.5496 26.5548 48.427 18.575 49.815 13.0478C50.2467 11.3276 49.7691 9.34166 49.8887 8.29605C49.8897 8.28114 49.904 7.88815 49.7624 7.32324C47.2181 30.2144 24.5253 42.9811 5.14062 47.9223Z" fill="#268534"/>
<path d="M39.2652 1.83571L35.332 5.95061C37.1211 4.29886 41.6726 1.23308 47.4121 5.83921L42.202 1.65764C41.3415 0.966408 40.0195 1.04711 39.2652 1.83571Z" fill="#58AD51"/>
<path d="M8.95275 34.0095L5.01953 38.1244C6.80857 36.4727 11.3602 33.4069 17.0996 38.013L11.8895 33.8315C11.028 33.1402 9.70608 33.2209 8.95275 34.0095Z" fill="#58AD51"/>
</svg>
